<?xml version="1.0" encoding="utf-8"?>
<!-- Generator: Adobe Illustrator 19.0.0, SVG Export Plug-In . SVG Version: 6.00 Build 0)  -->
<svg version="1.1" id="Layer_1" xmlns="http://www.w3.org/2000/svg" xmlns:xlink="http://www.w3.org/1999/xlink" x="0px" y="0px"
	 viewBox="0 0 543.7 116.4" style="enable-background:new 0 0 543.7 116.4;" xml:space="preserve">
<style type="text/css">
	.st0{fill:#242C5D;}
	.st1{fill:url(#XMLID_97_);}
</style>
<g id="XMLID_97_">
	<path id="XMLID_98_" class="st0" d="M152.8,85.5V29.4h9.2l20.6,46.8l20.2-46.8h8.8v56.1h-6.5v-46l-19.9,46h-5.7l-20.2-46v46H152.8z
		"/>
	<path id="XMLID_100_" class="st0" d="M222.2,73c0-8.4,5.6-12.7,16.7-12.7c3.6,0,7.2,0.3,10.7,0.8v-3.9c0-4.7-3.7-7.1-11.1-7.1
		c-4.2,0-8.6,0.7-13,2v-5.9c4.4-1.3,8.8-2,13-2c12.2,0,18.3,4.3,18.3,12.8v28.4h-4.1l-2.5-4.1c-4.1,2.7-8.6,4.1-13.4,4.1
		C227.1,85.5,222.2,81.3,222.2,73z M238.9,66.3c-6.3,0-9.4,2.2-9.4,6.7s2.5,6.7,7.4,6.7c5,0,9.3-1.3,12.7-4V67
		C246.1,66.5,242.5,66.3,238.9,66.3z"/>
	<path id="XMLID_103_" class="st0" d="M268.3,83.5v-6.3c4.8,1.6,9.7,2.4,14.7,2.4c6.6,0,9.8-2,9.8-5.9c0-3.7-2.3-5.5-6.9-5.5H280
		c-8.9,0-13.3-4-13.3-12.2c0-7.8,5.7-11.8,17.1-11.8c4.9,0,9.8,0.7,14.6,2v6.3c-4.8-1.6-9.7-2.4-14.6-2.4c-6.8,0-10.3,2-10.3,5.9
		c0,3.7,2.2,5.5,6.5,5.5h5.9c9.4,0,14.1,4.1,14.1,12.2c0,7.8-5.7,11.8-17.1,11.8C278,85.5,273.1,84.8,268.3,83.5z"/>
	<path id="XMLID_105_" class="st0" d="M309.8,37.6h4.5l1.6,6.7h11.1v5.9h-10v23.6c0,3.8,1.7,5.8,5,5.8h5v5.9h-6.9
		c-6.9,0-10.3-3.7-10.3-11.1V37.6z"/>
	<path id="XMLID_107_" class="st0" d="M353.2,44.3c11.7,0,17.6,5.8,17.6,17.4c0,1.6-0.1,3.4-0.4,5.3h-28.9c0,8.4,4.9,12.6,14.7,12.6
		c4.7,0,8.8-0.5,12.5-1.6v5.9c-3.6,1-8,1.6-13.2,1.6c-14.1,0-21.2-7-21.2-21C334.3,51,340.6,44.3,353.2,44.3z M341.6,60.9h22.3
		c-0.2-7.2-3.7-10.8-10.6-10.8C345.9,50.1,342,53.7,341.6,60.9z"/>
	<path id="XMLID_110_" class="st0" d="M380.6,85.5V44.3h4.9l1.3,5.3c3.6-3.5,7.9-5.3,13-5.3v6c-4.9,0-8.9,1.7-12,5.2v29.9H380.6z"/>
	<path id="XMLID_112_" class="st0" d="M417.4,29.4v56.1H407V29.4H417.4z M456.8,29.4l-23.9,26.1l26.4,29.9H445l-21.7-26.2v-6.7
		l20.9-23.1H456.8z"/>
	<path id="XMLID_115_" class="st0" d="M479.6,44.3c12.5,0,18.7,6.4,18.7,19.1c0,1.7-0.1,3.4-0.4,5.1h-27.3c0,5.8,4.3,8.7,12.8,8.7
		c4.2,0,8.3-0.4,12.5-1.2v8.2c-3.6,0.8-8,1.2-13.2,1.2c-14.9,0-22.4-7-22.4-21C460.3,51,466.8,44.3,479.6,44.3z M470.7,61.3h17.6V61
		c0-5.7-2.9-8.5-8.6-8.5C474.2,52.5,471.2,55.4,470.7,61.3z"/>
	<path id="XMLID_118_" class="st0" d="M501.3,44.3h11l10.4,29.6l10.2-29.6h10.8l-17.1,42.4c-3,7.5-7.9,12.8-14.5,16l-5-7.1
		c4.6-2,7.9-5.3,10-9.8L501.3,44.3z"/>
</g>
<g id="XMLID_61_">
	<path id="XMLID_62_" class="st0" d="M152.8,85.5V29.4h9.2l20.6,46.8l20.2-46.8h8.8v56.1h-6.5v-46l-19.9,46h-5.7l-20.2-46v46H152.8z
		"/>
	<path id="XMLID_65_" class="st0" d="M222.2,73c0-8.4,5.6-12.7,16.7-12.7c3.6,0,7.2,0.3,10.7,0.8v-3.9c0-4.7-3.7-7.1-11.1-7.1
		c-4.2,0-8.6,0.7-13,2v-5.9c4.4-1.3,8.8-2,13-2c12.2,0,18.3,4.3,18.3,12.8v28.4h-4.1l-2.5-4.1c-4.1,2.7-8.6,4.1-13.4,4.1
		C227.1,85.5,222.2,81.3,222.2,73z M238.9,66.3c-6.3,0-9.4,2.2-9.4,6.7s2.5,6.7,7.4,6.7c5,0,9.3-1.3,12.7-4V67
		C246.1,66.5,242.5,66.3,238.9,66.3z"/>
	<path id="XMLID_80_" class="st0" d="M268.3,83.5v-6.3c4.8,1.6,9.7,2.4,14.7,2.4c6.6,0,9.8-2,9.8-5.9c0-3.7-2.3-5.5-6.9-5.5H280
		c-8.9,0-13.3-4-13.3-12.2c0-7.8,5.7-11.8,17.1-11.8c4.9,0,9.8,0.7,14.6,2v6.3c-4.8-1.6-9.7-2.4-14.6-2.4c-6.8,0-10.3,2-10.3,5.9
		c0,3.7,2.2,5.5,6.5,5.5h5.9c9.4,0,14.1,4.1,14.1,12.2c0,7.8-5.7,11.8-17.1,11.8C278,85.5,273.1,84.8,268.3,83.5z"/>
	<path id="XMLID_82_" class="st0" d="M309.8,37.6h4.5l1.6,6.7h11.1v5.9h-10v23.6c0,3.8,1.7,5.8,5,5.8h5v5.9h-6.9
		c-6.9,0-10.3-3.7-10.3-11.1V37.6z"/>
	<path id="XMLID_84_" class="st0" d="M353.2,44.3c11.7,0,17.6,5.8,17.6,17.4c0,1.6-0.1,3.4-0.4,5.3h-28.9c0,8.4,4.9,12.6,14.7,12.6
		c4.7,0,8.8-0.5,12.5-1.6v5.9c-3.6,1-8,1.6-13.2,1.6c-14.1,0-21.2-7-21.2-21C334.3,51,340.6,44.3,353.2,44.3z M341.6,60.9h22.3
		c-0.2-7.2-3.7-10.8-10.6-10.8C345.9,50.1,342,53.7,341.6,60.9z"/>
	<path id="XMLID_87_" class="st0" d="M380.6,85.5V44.3h4.9l1.3,5.3c3.6-3.5,7.9-5.3,13-5.3v6c-4.9,0-8.9,1.7-12,5.2v29.9H380.6z"/>
	<path id="XMLID_89_" class="st0" d="M417.4,29.4v56.1H407V29.4H417.4z M456.8,29.4l-23.9,26.1l26.4,29.9H445l-21.7-26.2v-6.7
		l20.9-23.1H456.8z"/>
	<path id="XMLID_92_" class="st0" d="M479.6,44.3c12.5,0,18.7,6.4,18.7,19.1c0,1.7-0.1,3.4-0.4,5.1h-27.3c0,5.8,4.3,8.7,12.8,8.7
		c4.2,0,8.3-0.4,12.5-1.2v8.2c-3.6,0.8-8,1.2-13.2,1.2c-14.9,0-22.4-7-22.4-21C460.3,51,466.8,44.3,479.6,44.3z M470.7,61.3h17.6V61
		c0-5.7-2.9-8.5-8.6-8.5C474.2,52.5,471.2,55.4,470.7,61.3z"/>
	<path id="XMLID_95_" class="st0" d="M501.3,44.3h11l10.4,29.6l10.2-29.6h10.8l-17.1,42.4c-3,7.5-7.9,12.8-14.5,16l-5-7.1
		c4.6-2,7.9-5.3,10-9.8L501.3,44.3z"/>
</g>
<g id="XMLID_2_">
	<path id="XMLID_32_" class="st0" d="M152.8,85.5V29.4h9.2l20.6,46.8l20.2-46.8h8.8v56.1h-6.5v-46l-19.9,46h-5.7l-20.2-46v46H152.8z
		"/>
	<path id="XMLID_35_" class="st0" d="M222.2,73c0-8.4,5.6-12.7,16.7-12.7c3.6,0,7.2,0.3,10.7,0.8v-3.9c0-4.7-3.7-7.1-11.1-7.1
		c-4.2,0-8.6,0.7-13,2v-5.9c4.4-1.3,8.8-2,13-2c12.2,0,18.3,4.3,18.3,12.8v28.4h-4.1l-2.5-4.1c-4.1,2.7-8.6,4.1-13.4,4.1
		C227.1,85.5,222.2,81.3,222.2,73z M238.9,66.3c-6.3,0-9.4,2.2-9.4,6.7s2.5,6.7,7.4,6.7c5,0,9.3-1.3,12.7-4V67
		C246.1,66.5,242.5,66.3,238.9,66.3z"/>
	<path id="XMLID_40_" class="st0" d="M268.3,83.5v-6.3c4.8,1.6,9.7,2.4,14.7,2.4c6.6,0,9.8-2,9.8-5.9c0-3.7-2.3-5.5-6.9-5.5H280
		c-8.9,0-13.3-4-13.3-12.2c0-7.8,5.7-11.8,17.1-11.8c4.9,0,9.8,0.7,14.6,2v6.3c-4.8-1.6-9.7-2.4-14.6-2.4c-6.8,0-10.3,2-10.3,5.9
		c0,3.7,2.2,5.5,6.5,5.5h5.9c9.4,0,14.1,4.1,14.1,12.2c0,7.8-5.7,11.8-17.1,11.8C278,85.5,273.1,84.8,268.3,83.5z"/>
	<path id="XMLID_42_" class="st0" d="M309.8,37.6h4.5l1.6,6.7h11.1v5.9h-10v23.6c0,3.8,1.7,5.8,5,5.8h5v5.9h-6.9
		c-6.9,0-10.3-3.7-10.3-11.1V37.6z"/>
	<path id="XMLID_44_" class="st0" d="M353.2,44.3c11.7,0,17.6,5.8,17.6,17.4c0,1.6-0.1,3.4-0.4,5.3h-28.9c0,8.4,4.9,12.6,14.7,12.6
		c4.7,0,8.8-0.5,12.5-1.6v5.9c-3.6,1-8,1.6-13.2,1.6c-14.1,0-21.2-7-21.2-21C334.3,51,340.6,44.3,353.2,44.3z M341.6,60.9h22.3
		c-0.2-7.2-3.7-10.8-10.6-10.8C345.9,50.1,342,53.7,341.6,60.9z"/>
	<path id="XMLID_47_" class="st0" d="M380.6,85.5V44.3h4.9l1.3,5.3c3.6-3.5,7.9-5.3,13-5.3v6c-4.9,0-8.9,1.7-12,5.2v29.9H380.6z"/>
	<path id="XMLID_49_" class="st0" d="M417.4,29.4v56.1H407V29.4H417.4z M456.8,29.4l-23.9,26.1l26.4,29.9H445l-21.7-26.2v-6.7
		l20.9-23.1H456.8z"/>
	<path id="XMLID_53_" class="st0" d="M479.6,44.3c12.5,0,18.7,6.4,18.7,19.1c0,1.7-0.1,3.4-0.4,5.1h-27.3c0,5.8,4.3,8.7,12.8,8.7
		c4.2,0,8.3-0.4,12.5-1.2v8.2c-3.6,0.8-8,1.2-13.2,1.2c-14.9,0-22.4-7-22.4-21C460.3,51,466.8,44.3,479.6,44.3z M470.7,61.3h17.6V61
		c0-5.7-2.9-8.5-8.6-8.5C474.2,52.5,471.2,55.4,470.7,61.3z"/>
	<path id="XMLID_58_" class="st0" d="M501.3,44.3h11l10.4,29.6l10.2-29.6h10.8l-17.1,42.4c-3,7.5-7.9,12.8-14.5,16l-5-7.1
		c4.6-2,7.9-5.3,10-9.8L501.3,44.3z"/>
</g>
<linearGradient id="XMLID_120_" gradientUnits="userSpaceOnUse" x1="-6.184118e-007" y1="58.1838" x2="116.3676" y2="58.1838">
	<stop  offset="0" style="stop-color:#5BC3E1"/>
	<stop  offset="1" style="stop-color:#52529F"/>
</linearGradient>
<path id="XMLID_77_" style="fill:url(#XMLID_120_);" d="M30.9,60.5c1.3,0,2.3,1,2.3,2.3c0,1.3-1,2.3-2.3,2.3c-1.3,0-2.3-1-2.3-2.3
	C28.6,61.5,29.7,60.5,30.9,60.5z M2.3,22.7c1.3,0,2.3-1,2.3-2.3V4.5h15.9c1.3,0,2.3-1,2.3-2.3S21.7,0,20.5,0H2.3C1,0,0,1,0,2.3v18.2
	C0,21.7,1,22.7,2.3,22.7z M114.1,0H95.9c-1.3,0-2.3,1-2.3,2.3s1,2.3,2.3,2.3h15.9v15.9c0,1.3,1,2.3,2.3,2.3s2.3-1,2.3-2.3V2.3
	C116.4,1,115.3,0,114.1,0z M2.3,116.4h18.2c1.3,0,2.3-1,2.3-2.3c0-1.3-1-2.3-2.3-2.3H4.5V95.9c0-1.3-1-2.3-2.3-2.3S0,94.7,0,95.9
	v18.2C0,115.3,1,116.4,2.3,116.4z M114.1,93.6c-1.3,0-2.3,1-2.3,2.3v15.9H95.9c-1.3,0-2.3,1-2.3,2.3c0,1.3,1,2.3,2.3,2.3h18.2
	c1.3,0,2.3-1,2.3-2.3V95.9C116.4,94.7,115.3,93.6,114.1,93.6z M54.7,10.6c2.3-0.2,4.7-0.2,7,0c0.1,0,0.2,0,0.2,0
	c1.2,0,2.1-0.9,2.3-2c0.1-1.2-0.8-2.4-2-2.5c-2.6-0.3-5.3-0.3-7.9,0c-1.2,0.1-2.2,1.2-2,2.5C52.3,9.9,53.4,10.8,54.7,10.6z
	 M58.2,110.5c5.2,0,10.3-1,15-3c1.2-0.5,1.7-1.8,1.2-3c-0.5-1.2-1.8-1.7-3-1.2c-4.2,1.8-8.7,2.7-13.3,2.7c-14,0-26.4-8.4-31.6-21.3
	c-0.5-1.2-1.8-1.7-3-1.3c-1.2,0.5-1.7,1.8-1.3,3C28.1,100.6,42.1,110.5,58.2,110.5z M19.5,71.8c0,1.3,1,2.3,2.3,2.3s2.3-1,2.3-2.3
	v-9.1c0-1.3-1-2.3-2.3-2.3s-2.3,1-2.3,2.3V71.8z M43.1,8.9C28.8,15,19.5,29,19.5,44.5v9.1c0,1.3,1,2.3,2.3,2.3s2.3-1,2.3-2.3v-9.1
	c0-13.7,8.2-26.1,20.8-31.4c1.2-0.5,1.7-1.8,1.2-3C45.6,9,44.3,8.5,43.1,8.9z M82.8,101.6c8.9-7.4,14.1-18.2,14.1-29.8v-3.4
	c0-1.3-1-2.3-2.3-2.3s-2.3,1-2.3,2.3v3.4c0,10.2-4.5,19.8-12.4,26.3c-1,0.8-1.1,2.2-0.3,3.2C80.4,102.3,81.8,102.4,82.8,101.6z
	 M96.8,46.3c0-16.5-7.8-30.6-23.6-37.3c-1.2-0.5-2.5,0.1-3,1.2c-0.5,1.2,0.1,2.5,1.2,3c18.7,7.9,20.8,25.5,20.8,32.7
	c0,0.2,0,0.4,0,0.6v10.1v0c0,1.3,1,2.3,2.3,2.3s2.3-1,2.3-2.3L96.8,46.3L96.8,46.3z M82.7,39.5c0.2,1.1,1.2,1.8,2.2,1.8
	c0.2,0,0.3,0,0.5,0c1.2-0.3,2-1.5,1.8-2.7c-0.8-3.8-2.3-7.3-4.5-10.6c-0.7-1-2.1-1.3-3.2-0.6c-1,0.7-1.3,2.1-0.6,3.2
	C80.8,33.3,82,36.3,82.7,39.5z M28.7,46.3c-0.1,4.1,0-2.1,0,7.3c0,1.3,1,2.3,2.3,2.3s2.3-1,2.3-2.3V48c0.2-7-0.2-13.5,7.3-21.1
	c8.4-8.5,21.8-9.7,31.6-3.1c1,0.7,2.5,0.4,3.2-0.6c0.7-1,0.4-2.5-0.6-3.2c-11.7-7.9-27.4-6.4-37.4,3.6C28.9,32,28.8,40,28.7,46.3z
	 M75.3,93.2c-0.7-1-2.1-1.3-3.2-0.6c-4.2,2.8-8.9,4.3-13.7,4.3c-12.9,0.1-25.2-10.1-25.2-25c0-1.3-1-2.3-2.3-2.3s-2.3,1-2.3,2.3
	c0,17.2,14.1,29.5,29.7,29.5c5.8,0,11.5-1.8,16.4-5.1C75.7,95.6,76,94.2,75.3,93.2z M79.5,88.9c1,0.7,2.4,0.4,3.2-0.6
	c3.3-4.9,5.1-10.6,5.1-16.5V48c0-1.3-1-2.3-2.3-2.3s-2.3,1-2.3,2.3v23.9c0,5-1.5,9.8-4.3,14C78.2,86.8,78.5,88.2,79.5,88.9z
	 M43.5,38.4c0.5-1.2,0-2.5-1.2-3c-1.2-0.5-2.5,0-3,1.2c-1.1,2.5-1.6,5.2-1.6,8v27.3c0,11.3,9.2,20.5,20.5,20.5c1.3,0,2.3-1,2.3-2.3
	s-1-2.3-2.3-2.3c-8.8,0-15.9-7.1-15.9-15.9V44.5C42.3,42.4,42.7,40.3,43.5,38.4z M76.5,73.3C75.2,73,74,73.8,73.8,75
	c-0.6,3-2.1,5.8-4.3,8c-0.9,0.9-0.9,2.3,0,3.2c0.9,0.9,2.3,0.9,3.2,0c2.8-2.8,4.8-6.4,5.6-10.3C78.5,74.7,77.7,73.5,76.5,73.3z
	 M78.6,65V44.5c0-11.3-9.2-20.5-20.5-20.5c-2.8,0-5.4,0.5-8,1.6c-1.2,0.5-1.7,1.8-1.2,3c0.5,1.2,1.8,1.7,3,1.2c2-0.8,4-1.3,6.2-1.3
	c8.8,0,15.9,7.1,15.9,15.9V65v0c0,1.3,1,2.3,2.3,2.3S78.6,66.3,78.6,65L78.6,65z M58.2,33.2c-6.3,0-11.4,5.1-11.4,11.4V65
	c0,1.3,1,2.3,2.3,2.3c1.3,0,2.3-1,2.3-2.3V44.5c0-3.8,3.1-6.8,6.8-6.8c3.8,0,6.8,3.1,6.8,6.8c0,1.3,1,2.3,2.3,2.3
	c1.3,0,2.3-1,2.3-2.3C69.5,38.3,64.4,33.2,58.2,33.2z M68.7,76.2c1-2.3,0.9-4,0.9-6.7c0-1,0,0.5,0-11.3c0-1.3-1-2.3-2.3-2.3
	c-1.3,0-2.3,1-2.3,2.3c0,11.4,0,9.4,0,11.4c0,2.5,0,3.5-0.6,4.9c-1.1,2.5-3.5,4.2-6.3,4.2c-2.7,0-5.2-1.6-6.3-4.2
	c-0.5-1.2-1.8-1.7-3-1.2c-1.2,0.5-1.7,1.8-1.2,3c1.8,4.2,5.9,6.9,10.5,6.9C62.8,83.2,66.9,80.5,68.7,76.2z M60.5,71.8V44.5
	c0-1.3-1-2.3-2.3-2.3s-2.3,1-2.3,2.3v27.3c0,1.3,1,2.3,2.3,2.3S60.5,73.1,60.5,71.8z"/>
</svg>
