<?xml version="1.0" encoding="iso-8859-1"?>
<!-- Generator: Adobe Illustrator 19.0.0, SVG Export Plug-In . SVG Version: 6.00 Build 0)  -->
<svg version="1.1" id="Layer_1" xmlns="http://www.w3.org/2000/svg" xmlns:xlink="http://www.w3.org/1999/xlink" x="0px" y="0px"
	 viewBox="0 0 512.016 512.016" style="enable-background:new 0 0 512.016 512.016;" xml:space="preserve">
<circle cx="377.128" cy="450.56" r="61.456"/>
<circle style="fill:#999999;" cx="377.128" cy="450.56" r="29.856"/>
<polygon points="145.552,151.36 105.184,31.92 0.68,31.92 0.68,0 128.096,0 175.784,141.136 "/>
<circle cx="191.752" cy="450.56" r="61.456"/>
<polygon style="fill:#FFFFFF;" points="147.824,353.584 78.992,132.56 499.992,132.56 421.216,353.584 "/>
<path style="fill:#E21B1B;" d="M488.648,140.56l-73.072,205.024H153.712l-63.84-205.032L488.648,140.56 M511.336,124.552H68.128
	l73.808,237.032h284.92L511.336,124.552L511.336,124.552z"/>
<circle style="fill:#999999;" cx="191.752" cy="450.56" r="29.856"/>
<circle style="fill:#E21B1B;" cx="315.664" cy="151.36" r="108"/>
<path style="fill:#FFFFFF;" d="M310.456,210.616v-14.512c-8.512-0.096-16.856-2.36-24.248-6.584l4.048-14.064
	c7.072,4.192,15.12,6.464,23.344,6.584c9.432,0,15.864-4.64,15.864-11.832c0-6.736-5.24-11.072-16.312-15.12
	c-15.72-5.68-25.896-12.864-25.896-26.792c0.288-13.416,10.72-24.424,24.104-25.44V88.208h12.264v13.912
	c7.168,0.08,14.224,1.768,20.656,4.936l-4,13.776c-6.28-3.296-13.256-5.048-20.352-5.096c-10.48,0-14.216,5.392-14.216,10.48
	c0,6.144,5.384,9.6,18.112,14.672c16.76,6.28,24.24,14.4,24.24,27.688c-0.296,14.072-11.248,25.608-25.288,26.632v15.416
	L310.456,210.616z"/>
<g>
</g>
<g>
</g>
<g>
</g>
<g>
</g>
<g>
</g>
<g>
</g>
<g>
</g>
<g>
</g>
<g>
</g>
<g>
</g>
<g>
</g>
<g>
</g>
<g>
</g>
<g>
</g>
<g>
</g>
</svg>
