<?xml version="1.0" encoding="utf-8"?>
<!-- Generator: Adobe Illustrator 22.1.0, SVG Export Plug-In . SVG Version: 6.00 Build 0)  -->
<svg version="1.1" id="Warstwa_1" xmlns="http://www.w3.org/2000/svg" xmlns:xlink="http://www.w3.org/1999/xlink" x="0px" y="0px"
	 viewBox="0 0 173.2 200" style="enable-background:new 0 0 173.2 200;" xml:space="preserve">
<style type="text/css">
	.st0{fill:url(#XMLID_2_);}
</style>
<linearGradient id="XMLID_2_" gradientUnits="userSpaceOnUse" x1="1.1676" y1="100.1838" x2="173.2" y2="100.1838">
	<stop  offset="0" style="stop-color:#5AC2E0"/>
	<stop  offset="1" style="stop-color:#51519D"/>
</linearGradient>
<path id="XMLID_77_" class="st0" d="M46.9,103.5c1.9,0,3.4,1.5,3.4,3.4c0,1.9-1.5,3.4-3.4,3.4c-1.9,0-3.4-1.5-3.4-3.4
	C43.5,105,45,103.5,46.9,103.5z M4.5,47.8c1.9,0,3.4-1.5,3.4-3.4V20.9h23.5c1.9,0,3.4-1.5,3.4-3.4s-1.5-3.4-3.4-3.4H4.5
	c-1.9,0-3.4,1.5-3.4,3.4v26.9C1.2,46.3,2.7,47.8,4.5,47.8z M169.8,14.2H143c-1.9,0-3.4,1.5-3.4,3.4s1.5,3.4,3.4,3.4h23.5v23.5
	c0,1.9,1.5,3.4,3.4,3.4c1.9,0,3.4-1.5,3.4-3.4V17.5C173.2,15.7,171.7,14.2,169.8,14.2z M4.5,186.2h26.9c1.9,0,3.4-1.5,3.4-3.4
	s-1.5-3.4-3.4-3.4H7.9V156c0-1.9-1.5-3.4-3.4-3.4s-3.4,1.5-3.4,3.4v26.9C1.2,184.7,2.7,186.2,4.5,186.2z M169.8,152.6
	c-1.9,0-3.4,1.5-3.4,3.4v23.5H143c-1.9,0-3.4,1.5-3.4,3.4s1.5,3.4,3.4,3.4h26.9c1.9,0,3.4-1.5,3.4-3.4V156
	C173.2,154.1,171.7,152.6,169.8,152.6z M82,29.9c3.4-0.3,6.9-0.3,10.3,0c0.1,0,0.2,0,0.3,0c1.7,0,3.2-1.3,3.3-3
	c0.2-1.8-1.2-3.5-3-3.7c-3.8-0.4-7.8-0.4-11.7,0c-1.8,0.2-3.2,1.8-3,3.7C78.5,28.7,80.2,30.1,82,29.9z M87.2,177.5
	c7.7,0,15.2-1.5,22.2-4.5c1.7-0.7,2.5-2.7,1.8-4.4c-0.7-1.7-2.7-2.5-4.4-1.8c-6.2,2.6-12.8,4-19.6,4c-20.6,0-39-12.4-46.7-31.5
	c-0.7-1.7-2.7-2.6-4.4-1.9c-1.7,0.7-2.6,2.7-1.9,4.4C42.8,162.9,63.4,177.5,87.2,177.5z M30.1,120.3c0,1.9,1.5,3.4,3.4,3.4
	s3.4-1.5,3.4-3.4v-13.4c0-1.9-1.5-3.4-3.4-3.4s-3.4,1.5-3.4,3.4V120.3z M64.9,27.4C43.8,36.4,30.1,57,30.1,80v13.4
	c0,1.9,1.5,3.4,3.4,3.4s3.4-1.5,3.4-3.4V80c0-20.3,12.1-38.5,30.8-46.4c1.7-0.7,2.5-2.7,1.8-4.4C68.6,27.5,66.7,26.7,64.9,27.4z
	 M123.5,164.4c13.2-10.9,20.8-27,20.8-44.1v-5c0-1.9-1.5-3.4-3.4-3.4c-1.9,0-3.4,1.5-3.4,3.4v5c0,15.1-6.7,29.3-18.3,38.9
	c-1.4,1.2-1.6,3.3-0.5,4.7C120,165.4,122.1,165.6,123.5,164.4z M144.3,82.5c0-24.5-11.5-45.2-34.9-55.2c-1.7-0.7-3.7,0.1-4.4,1.8
	c-0.7,1.7,0.1,3.7,1.8,4.4c27.7,11.7,30.7,37.7,30.8,48.3c0,0.3,0,0.6,0,0.8v15v0c0,1.9,1.5,3.3,3.4,3.3s3.4-1.5,3.4-3.4V82.5
	L144.3,82.5z M123.4,72.6c0.3,1.6,1.7,2.7,3.3,2.7c0.2,0,0.5,0,0.7-0.1c1.8-0.4,3-2.1,2.6-4c-1.2-5.6-3.4-10.9-6.6-15.6
	c-1-1.5-3.1-1.9-4.7-0.9c-1.5,1-1.9,3.1-0.9,4.7C120.5,63.4,122.4,67.8,123.4,72.6z M43.6,82.7c-0.1,6.1,0-3.1,0,10.8
	c0,1.9,1.5,3.4,3.4,3.4c1.9,0,3.4-1.5,3.4-3.4v-8.4c0.3-10.3-0.4-20,10.8-31.2c12.5-12.5,32.2-14.4,46.8-4.5c1.5,1,3.6,0.6,4.7-0.9
	c1-1.5,0.6-3.6-0.9-4.7c-17.3-11.7-40.5-9.4-55.3,5.3C43.9,61.5,43.7,73.2,43.6,82.7z M112.5,151.9c-1-1.5-3.1-1.9-4.7-0.9
	c-6.2,4.2-13.2,6.3-20.3,6.4c-19,0.1-37.3-15-37.3-37c0-1.9-1.5-3.4-3.4-3.4c-1.9,0-3.4,1.5-3.4,3.4c0,25.5,20.9,43.7,43.9,43.7
	c8.6,0,17-2.6,24.2-7.5C113.1,155.5,113.5,153.4,112.5,151.9z M118.7,145.7c1.5,1,3.6,0.6,4.7-0.9c4.9-7.2,7.5-15.7,7.5-24.4V85.1
	c0-1.9-1.5-3.4-3.4-3.4c-1.9,0-3.4,1.5-3.4,3.4v35.3c0,7.4-2.2,14.5-6.3,20.6C116.8,142.5,117.2,144.6,118.7,145.7z M65.5,70.9
	c0.7-1.7-0.1-3.7-1.8-4.4c-1.7-0.7-3.7,0.1-4.4,1.8c-1.6,3.7-2.4,7.7-2.4,11.8v40.3c0,16.7,13.5,30.2,30.2,30.2
	c1.9,0,3.4-1.5,3.4-3.4c0-1.9-1.5-3.4-3.4-3.4c-13,0-23.5-10.5-23.5-23.5V80C63.7,76.9,64.3,73.8,65.5,70.9z M114.2,122.5
	c-1.8-0.4-3.6,0.8-4,2.6c-0.9,4.5-3.1,8.6-6.4,11.9c-1.3,1.3-1.3,3.4,0,4.8c1.3,1.3,3.4,1.3,4.8,0c4.2-4.2,7.1-9.5,8.3-15.3
	C117.2,124.6,116,122.8,114.2,122.5z M117.4,110.3V80c0-16.7-13.6-30.2-30.2-30.2c-4.1,0-8,0.8-11.8,2.4c-1.7,0.7-2.5,2.7-1.8,4.4
	c0.7,1.7,2.7,2.5,4.4,1.8c2.9-1.2,6-1.9,9.1-1.9c13,0,23.5,10.6,23.5,23.5v30.2v0c0,1.9,1.5,3.4,3.4,3.4S117.4,112.2,117.4,110.3
	L117.4,110.3z M87.2,63.2c-9.3,0-16.8,7.5-16.8,16.8v30.2c0,1.9,1.5,3.4,3.4,3.4c1.9,0,3.4-1.5,3.4-3.4V80c0-5.6,4.5-10.1,10.1-10.1
	c5.6,0,10.1,4.5,10.1,10.1c0,1.9,1.5,3.4,3.4,3.4c1.9,0,3.4-1.5,3.4-3.4C104,70.8,96.4,63.2,87.2,63.2z M102.7,126.9
	c1.4-3.4,1.4-6,1.3-9.9c0-1.4,0,0.7,0-16.8c0-1.9-1.5-3.4-3.4-3.4c-1.9,0-3.3,1.5-3.3,3.4c0,16.8-0.1,13.9,0,16.9
	c0.1,3.6,0.1,5.2-0.8,7.2c-1.6,3.7-5.2,6.2-9.3,6.2c-4.1,0-7.7-2.4-9.3-6.2c-0.7-1.7-2.7-2.5-4.4-1.8c-1.7,0.7-2.5,2.7-1.8,4.4
	c2.6,6.2,8.7,10.3,15.5,10.3C93.9,137.1,100,133.1,102.7,126.9z M90.5,120.3V80c0-1.9-1.5-3.4-3.4-3.4c-1.9,0-3.4,1.5-3.4,3.4v40.3
	c0,1.9,1.5,3.4,3.4,3.4C89,123.7,90.5,122.2,90.5,120.3z"/>
</svg>
